<?xml version="1.0" encoding="UTF-8" standalone="no"?><svg xmlns="http://www.w3.org/2000/svg" version="1.1" viewBox="0 0 256 256" height="256" width="256"><path d="m4.5 34.74a4.5004 4.5004 0 0 0 -4.5 4.5v177.53a4.5004 4.5004 0 0 0 0.0058594 0.1 4.5004 4.5004 0 0 0 0.013672 0.28 4.5004 4.5004 0 0 0 0.019531 0.17 4.5004 4.5004 0 0 0 0.035157 0.24 4.5004 4.5004 0 0 0 0.046871 0.23 4.5004 4.5004 0 0 0 0.05664 0.22 4.5004 4.5004 0 0 0 0.06446 0.2 4.5004 4.5004 0 0 0 0.08203 0.23 4.5004 4.5004 0 0 0 0.08203 0.19 4.5004 4.5004 0 0 0 0.10156 0.21 4.5004 4.5004 0 0 0 0.10352 0.19 4.5004 4.5004 0 0 0 0.13281 0.21 4.5004 4.5004 0 0 0 0.10547 0.15 4.5004 4.5004 0 0 0 0.15629 0.21 4.5004 4.5004 0 0 0 0.1289 0.15 4.5004 4.5004 0 0 0 0.1679 0.18 4.5004 4.5004 0 0 0 0.1446 0.14 4.5004 4.5004 0 0 0 0.1933 0.17 4.5004 4.5004 0 0 0 0.1485 0.12 4.5004 4.5004 0 0 0 0.2031 0.14 4.5004 4.5004 0 0 0 0.1855 0.12 4.5004 4.5004 0 0 0 0.1973 0.11 4.5004 4.5004 0 0 0 0.1953 0.1 4.5004 4.5004 0 0 0 0.2129 0.09 4.5004 4.5004 0 0 0 0.1856 0.08 4.5004 4.5004 0 0 0 0.25 0.08 4.5004 4.5004 0 0 0 0.1914 0.05 4.5004 4.5004 0 0 0 0.2246 0.05 4.5004 4.5004 0 0 0 0.2246 0.04 4.5004 4.5004 0 0 0 0.2363 0.03 4.5004 4.5004 0 0 0 0.2481 0.01 4.5004 4.5004 0 0 0 0.1562 0.01h211.25a4.5004 4.5004 0 0 0 4.31 -3.2l35.75-119.18a4.5004 4.5004 0 0 0 -4.31 -5.796h-32.88v-36.598a4.5004 4.5004 0 0 0 -4.5 -4.5h-122.66l0.007-12.756a4.5004 4.5004 0 0 0 -4.5 -4.5h-82.467zm119.73 67.35h94.39 26.83l-26.83 89.45-6.22 20.73h-201.5l30.079-83.88h56.144a4.5004 4.5004 0 0 0 0.449 -0.02 4.5004 4.5004 0 0 0 2.798 -1.36l23.86-24.92z" fill-rule="evenodd" fill="#89b1d3"/></svg>